<svg xmlns="http://www.w3.org/2000/svg" viewBox="0 0 512 512" style="enable-background:new 0 0 512 512" xml:space="preserve"><path style="fill:#333e48" d="M394.681 36.691c-3.976-7.776-14.372-14.136-23.104-14.136H140.423c-8.732 0-19.129 6.361-23.104 14.136l-47.931 93.762c-3.975 7.776-.083 14.137 8.65 14.137h355.924c8.732 0 12.626-6.362 8.651-14.137l-47.932-93.762z"/><path style="opacity:.1;enable-background:new" d="M96.34 77.73h111.071V61.853H104.457L96.34 77.73zm311.203-15.877H304.589V77.73h111.07l-8.116-15.877z"/><path style="fill:#00b3e3" d="M59.571 132.659h392.853v344.862H59.571z"/><path style="opacity:.1;enable-background:new" d="M396.579 181.518h55.857v26.88h-55.857zM320.157 303.507h55.857v26.88h-55.857zM251.218 181.094h55.858v26.88h-55.858zM59.571 246.677h55.857v26.88H59.571zM103.445 156.771h55.858v26.88h-55.858zM186.006 342.3h55.858v26.88h-55.858zM87.504 415.292h55.857v26.88H87.504zM396.568 413.779h55.857v26.88h-55.857z"/><path style="fill:#fff" d="M199.374 355.743H312.62v121.778H199.374z"/><path style="opacity:.2;enable-background:new" d="M248.064 355.743h15.877v109.848h-15.877z"/><path style="fill:#fff" d="M94.183 207.884h68.651v77.586H94.183z"/><path style="opacity:.2;enable-background:new" d="M94.183 207.884h68.651v17.105H94.183z"/><path style="fill:#fff" d="M221.676 207.884h68.649v77.586h-68.649z"/><path style="opacity:.2;enable-background:new" d="M221.676 207.884h68.649v17.105h-68.649z"/><path style="fill:#fff" d="M349.17 207.884h68.651v77.586H349.17z"/><path style="opacity:.2;enable-background:new" d="M349.17 207.884h68.651v17.105H349.17z"/><path style="fill:#fff" d="M94.183 316.95h68.651v77.586H94.183z"/><path style="opacity:.2;enable-background:new" d="M94.183 316.95h68.651v17.105H94.183z"/><path style="fill:#fff" d="M349.17 316.95h68.651v77.586H349.17z"/><path style="opacity:.2;enable-background:new" d="M349.17 316.95h68.651v17.105H349.17z"/><path style="fill:#0071ce" d="M467.442 133.302c0-5.822-4.763-10.585-10.585-10.585H55.142c-5.822 0-10.585 4.763-10.585 10.585v12.885c0 5.822 4.763 10.585 10.585 10.585h401.715c5.822 0 10.585-4.763 10.585-10.585v-12.885z"/><path style="fill:#333e48" d="M504.061 485.17a4.287 4.287 0 0 1-4.275 4.275H12.214a4.287 4.287 0 0 1-4.275-4.275v-15.302a4.288 4.288 0 0 1 4.275-4.277h487.573a4.287 4.287 0 0 1 4.275 4.277v15.302z"/><path style="fill:#a4a9ad" d="M165.736 465.591h180.533v23.853H165.736z"/><path style="fill:#fff" d="M238.009 64.715h35.988v15.877h-35.988z"/><path style="fill:#fff" d="M238.005 105.737a7.938 7.938 0 0 1-7.939-7.939V47.513c0-4.385 3.554-7.939 7.939-7.939s7.939 3.553 7.939 7.939v50.286a7.938 7.938 0 0 1-7.939 7.938zM273.994 105.737a7.938 7.938 0 0 1-7.939-7.939V47.513a7.938 7.938 0 0 1 7.939-7.939 7.938 7.938 0 0 1 7.939 7.939v50.286a7.939 7.939 0 0 1-7.939 7.938z"/><path style="fill:#1e252b" d="M499.786 457.652h-39.422V164.366c8.541-1.645 15.018-9.165 15.018-18.18v-12.885c0-10.213-8.31-18.523-18.523-18.523h-13.342l-41.767-81.7c-5.293-10.352-18.547-18.461-30.173-18.461H140.423c-11.626 0-24.879 8.109-30.173 18.461L68.485 114.78H55.142c-10.213 0-18.523 8.31-18.523 18.523v12.885c0 9.014 6.475 16.534 15.016 18.18v293.285H12.214C5.479 457.652 0 463.132 0 469.867v15.302c0 6.734 5.479 12.214 12.214 12.214h487.573c6.734 0 12.214-5.48 12.214-12.214v-15.302c-.001-6.735-5.481-12.215-12.215-12.215zM124.387 40.305c2.625-5.136 10.268-9.812 16.036-9.812h231.154c5.767 0 13.411 4.676 16.036 9.812l38.071 74.473H86.316l38.071-74.473zm-71.891 92.997c0-1.434 1.212-2.646 2.646-2.646h401.715c1.434 0 2.646 1.212 2.646 2.646v12.885c0 1.434-1.212 2.646-2.646 2.646H55.142c-1.434 0-2.646-1.212-2.646-2.646v-12.885zm260.127 214.504H199.376a7.938 7.938 0 0 0-7.939 7.939v101.907H67.511V164.709h376.976v292.942H320.56V355.745a7.937 7.937 0 0 0-7.937-7.939zm-7.939 15.877v93.968h-97.369v-93.968h97.369zM157.793 481.506H15.877v-7.978h141.916v7.978zm180.539 0H173.67v-7.978h164.662v7.978zm157.791 0H354.209v-7.978h141.914v7.978zM162.834 199.943H94.183a7.938 7.938 0 0 0-7.939 7.939v77.588a7.938 7.938 0 0 0 7.939 7.939h68.651a7.938 7.938 0 0 0 7.939-7.939v-77.588a7.94 7.94 0 0 0-7.939-7.939zm-7.939 77.588h-52.773v-22.916h52.773v22.916zm0-38.793h-52.773v-22.917h52.773v22.917zm135.43-38.795h-68.651a7.938 7.938 0 0 0-7.939 7.939v77.588a7.938 7.938 0 0 0 7.939 7.939h68.651a7.938 7.938 0 0 0 7.939-7.939v-77.588a7.94 7.94 0 0 0-7.939-7.939zm-7.939 77.588h-52.773v-22.916h52.773v22.916zm0-38.793h-52.773v-22.917h52.773v22.917zm-119.552 70.273H94.183a7.938 7.938 0 0 0-7.939 7.939v77.588a7.94 7.94 0 0 0 7.939 7.939h68.651a7.94 7.94 0 0 0 7.939-7.939V316.95a7.94 7.94 0 0 0-7.939-7.939zm-7.939 77.588h-52.773v-22.916h52.773v22.916zm0-38.793h-52.773v-22.918h52.773v22.918zm194.271 54.67h68.649a7.938 7.938 0 0 0 7.939-7.939V316.95a7.938 7.938 0 0 0-7.939-7.939h-68.649a7.938 7.938 0 0 0-7.939 7.939v77.588a7.938 7.938 0 0 0 7.939 7.938zm7.939-77.588h52.772v22.917h-52.772v-22.917zm0 38.795h52.772v22.916h-52.772v-22.916zm-7.939-70.275h68.649a7.938 7.938 0 0 0 7.939-7.939v-77.588a7.938 7.938 0 0 0-7.939-7.939h-68.649a7.938 7.938 0 0 0-7.939 7.939v77.588a7.938 7.938 0 0 0 7.939 7.939zm7.939-77.588h52.772v22.917h-52.772V215.82zm0 38.795h52.772v22.916h-52.772v-22.916z"/></svg>